<svg xmlns="http://www.w3.org/2000/svg" viewBox="0 0 39 41" width="39" height="41">
	<style>
		tspan { white-space:pre }
		.shp0 { fill: #ffffff } 
	</style>
	<g id="0.8.0 - Home">
		<g id="Main Ruling">
			<g id="thumbs 2">
				<path id="Rectangle 9 copy 2" class="shp0" d="M29.57 22.57C25.33 28.82 23.83 30.61 24.08 34.22C24.33 37.84 23.61 38.84 21.91 39.01C20.2 39.19 16.99 38.26 16.43 32.34C16.18 29.78 18.01 24.73 18.01 24.73C18.01 24.73 6.36 24.72 5.23 24.72C3.42 24.72 2 23.95 2 21.48C2 19.16 4.56 18.46 4.56 18.46C4.56 18.46 2.92 17.82 2.92 15.87C2.92 13.9 4.62 13.01 5.74 13.01C5.05 12.67 4.07 12 4.29 10.31C4.5 8.62 5.7 8.01 6.89 7.65C6.12 7.17 5.56 5.86 5.99 4.85C6.56 3.5 8.08 2 11.48 2C15.6 2 26.92 2 27.38 2C28.58 2 29.47 2.55 29.66 3.23C29.66 4.62 29.66 21.82 29.66 21.82C29.66 21.82 29.66 22.42 29.57 22.57ZM30.78 2L37 2L37 23.78L30.78 23.78L30.78 2ZM31.78 2L38 2L38 23.78L31.78 23.78L31.78 2Z" />
			</g>
		</g>
	</g>
</svg>